<mxfile host="app.diagrams.net" agent="Mozilla/5.0 (X11; Ubuntu; Linux x86_64; rv:138.0) Gecko/20100101 Firefox/138.0" version="27.0.6">
  <diagram name="Page-1" id="N17phzSXL9w7y8zX3gDE">
    <mxGraphModel dx="2141" dy="734" grid="1" gridSize="10" guides="1" tooltips="1" connect="1" arrows="1" fold="1" page="1" pageScale="1" pageWidth="850" pageHeight="1100" math="1" shadow="0">
      <root>
        <mxCell id="0" />
        <mxCell id="1" parent="0" />
        <mxCell id="npHvEOHwPtpxPotPW_9_-1" value="$$\mathcal{L}(\Gamma) = \mathcal{L}_{\textrm{L200}} \cdot \mathcal{L}_{\textrm{aux}}$$" style="text;whiteSpace=wrap;align=center;verticalAlign=middle;" vertex="1" parent="1">
          <mxGeometry x="-90" y="260" width="160" height="50" as="geometry" />
        </mxCell>
        <mxCell id="npHvEOHwPtpxPotPW_9_-2" value="" style="endArrow=none;html=1;rounded=0;fontColor=#07A9FF;strokeColor=#07A9FF;strokeWidth=2;" edge="1" parent="1">
          <mxGeometry width="50" height="50" relative="1" as="geometry">
            <mxPoint x="-17.5" y="300" as="sourcePoint" />
            <mxPoint x="12.5" y="300" as="targetPoint" />
          </mxGeometry>
        </mxCell>
        <mxCell id="npHvEOHwPtpxPotPW_9_-3" value="" style="endArrow=none;html=1;rounded=0;fontColor=#07A9FF;strokeColor=#1A2A5B;strokeWidth=2;" edge="1" parent="1">
          <mxGeometry width="50" height="50" relative="1" as="geometry">
            <mxPoint x="22.5" y="300" as="sourcePoint" />
            <mxPoint x="52.5" y="300" as="targetPoint" />
          </mxGeometry>
        </mxCell>
        <mxCell id="npHvEOHwPtpxPotPW_9_-4" value="" style="endArrow=classic;html=1;rounded=0;exitX=0.5;exitY=1;exitDx=0;exitDy=0;entryX=0.5;entryY=0;entryDx=0;entryDy=0;" edge="1" parent="1" source="npHvEOHwPtpxPotPW_9_-1" target="npHvEOHwPtpxPotPW_9_-6">
          <mxGeometry width="50" height="50" relative="1" as="geometry">
            <mxPoint x="-7.5" y="300" as="sourcePoint" />
            <mxPoint x="102.5" y="300" as="targetPoint" />
          </mxGeometry>
        </mxCell>
        <mxCell id="npHvEOHwPtpxPotPW_9_-5" value="" style="group" vertex="1" connectable="0" parent="1">
          <mxGeometry x="-515" y="340" width="1010" height="90" as="geometry" />
        </mxCell>
        <mxCell id="npHvEOHwPtpxPotPW_9_-6" value="$$\mathcal{L}(\Gamma | \vec{\nu}\,) = \prod_k \bigg[ \frac{(s_k + b_k)^{N_k} e^{-(s_k + b_k)}}{N_k!} \prod_{i=1}^{N_k} \frac{1}{s_k + b_k} \left( \frac{b_k}{\Delta E} + \frac{s_k}{\sqrt{2 \pi \sigma_k^2}} e^{-\frac{(E_i - Q_{\beta\beta} - \Delta_k)^2}{2 \sigma_k^2}} \right) \bigg] &#xa;&#xa;\times \prod_k \bigg[ \frac{1}{\sqrt{2 \pi \delta_{\Delta_k}^2}} e^{-\frac{(\Delta_k - \tilde{\Delta}_k)^2}{2 \delta_{\Delta_k}^2}}   &#xa; \frac{1}{\sqrt{2 \pi \delta_{\sigma_k}^2}} e^{-\frac{(\sigma_k - &#xa;\tilde{\sigma}_k)^2}{2 \delta_{\sigma_k}^2}} \bigg] \times \frac{1}{\sqrt{2 &#xa;\pi \delta_{\alpha} }} e^{-\frac{(\alpha - \tilde{\alpha})^2}{2 &#xa;\delta_{\alpha}}}&#xa;   $$" style="text;whiteSpace=wrap;align=center;verticalAlign=middle;" vertex="1" parent="npHvEOHwPtpxPotPW_9_-5">
          <mxGeometry width="1010" height="90" as="geometry" />
        </mxCell>
        <mxCell id="npHvEOHwPtpxPotPW_9_-7" value="" style="endArrow=none;html=1;rounded=0;entryX=0.607;entryY=0.786;entryDx=0;entryDy=0;entryPerimeter=0;fontColor=#07A9FF;strokeColor=#07A9FF;strokeWidth=2;" edge="1" parent="npHvEOHwPtpxPotPW_9_-5">
          <mxGeometry width="50" height="50" relative="1" as="geometry">
            <mxPoint x="135" y="80" as="sourcePoint" />
            <mxPoint x="564.9200000000001" y="80.03999999999996" as="targetPoint" />
          </mxGeometry>
        </mxCell>
        <mxCell id="npHvEOHwPtpxPotPW_9_-8" value="" style="endArrow=none;html=1;rounded=0;fontColor=#07A9FF;strokeColor=#1A2A5B;strokeWidth=2;" edge="1" parent="npHvEOHwPtpxPotPW_9_-5">
          <mxGeometry width="50" height="50" relative="1" as="geometry">
            <mxPoint x="585" y="80" as="sourcePoint" />
            <mxPoint x="955" y="80" as="targetPoint" />
          </mxGeometry>
        </mxCell>
        <mxCell id="npHvEOHwPtpxPotPW_9_-9" value="" style="group" vertex="1" connectable="0" parent="1">
          <mxGeometry x="-620" y="450" width="1140" height="1180" as="geometry" />
        </mxCell>
        <mxCell id="npHvEOHwPtpxPotPW_9_-10" value="" style="rounded=0;whiteSpace=wrap;html=1;fillColor=none;dashed=1;dashPattern=8 8;strokeColor=#D907FF;fontColor=#07A9FF;" vertex="1" parent="npHvEOHwPtpxPotPW_9_-9">
          <mxGeometry x="110" y="280" width="1030" height="820" as="geometry" />
        </mxCell>
        <mxCell id="npHvEOHwPtpxPotPW_9_-11" value="" style="rounded=0;whiteSpace=wrap;html=1;fillColor=none;dashed=1;dashPattern=8 8;strokeColor=#FF5D07;" vertex="1" parent="npHvEOHwPtpxPotPW_9_-9">
          <mxGeometry x="250" y="410" width="525" height="450" as="geometry" />
        </mxCell>
        <mxCell id="npHvEOHwPtpxPotPW_9_-12" style="edgeStyle=orthogonalEdgeStyle;rounded=0;orthogonalLoop=1;jettySize=auto;html=1;exitX=0.25;exitY=1;exitDx=0;exitDy=0;entryX=0.5;entryY=0;entryDx=0;entryDy=0;" edge="1" parent="npHvEOHwPtpxPotPW_9_-9" source="npHvEOHwPtpxPotPW_9_-14" target="npHvEOHwPtpxPotPW_9_-16">
          <mxGeometry relative="1" as="geometry" />
        </mxCell>
        <mxCell id="npHvEOHwPtpxPotPW_9_-13" style="edgeStyle=orthogonalEdgeStyle;rounded=0;orthogonalLoop=1;jettySize=auto;html=1;exitX=0.75;exitY=1;exitDx=0;exitDy=0;entryX=0.5;entryY=0;entryDx=0;entryDy=0;" edge="1" parent="npHvEOHwPtpxPotPW_9_-9" source="npHvEOHwPtpxPotPW_9_-14" target="npHvEOHwPtpxPotPW_9_-18">
          <mxGeometry relative="1" as="geometry" />
        </mxCell>
        <mxCell id="npHvEOHwPtpxPotPW_9_-14" value="&lt;div&gt;truth&lt;b&gt;&lt;br&gt;&lt;/b&gt;&lt;/div&gt;&lt;div&gt;\(\Gamma_t,&amp;nbsp; \vec{\nu}_t\)&lt;br&gt;&lt;/div&gt;" style="rounded=1;whiteSpace=wrap;html=1;fillColor=default;" vertex="1" parent="npHvEOHwPtpxPotPW_9_-9">
          <mxGeometry x="445" width="120" height="60" as="geometry" />
        </mxCell>
        <mxCell id="npHvEOHwPtpxPotPW_9_-15" style="edgeStyle=orthogonalEdgeStyle;rounded=0;orthogonalLoop=1;jettySize=auto;html=1;exitX=0.5;exitY=1;exitDx=0;exitDy=0;entryX=0.25;entryY=0;entryDx=0;entryDy=0;" edge="1" parent="npHvEOHwPtpxPotPW_9_-9" source="npHvEOHwPtpxPotPW_9_-16" target="npHvEOHwPtpxPotPW_9_-31">
          <mxGeometry relative="1" as="geometry" />
        </mxCell>
        <mxCell id="npHvEOHwPtpxPotPW_9_-16" value="&lt;div&gt;L200 data&lt;/div&gt;&lt;div&gt;\(\{E_i\}_k | \Gamma_t\)&lt;/div&gt;" style="rounded=1;whiteSpace=wrap;html=1;" vertex="1" parent="npHvEOHwPtpxPotPW_9_-9">
          <mxGeometry x="375" y="100" width="120" height="60" as="geometry" />
        </mxCell>
        <mxCell id="npHvEOHwPtpxPotPW_9_-17" style="edgeStyle=orthogonalEdgeStyle;rounded=0;orthogonalLoop=1;jettySize=auto;html=1;exitX=0.5;exitY=1;exitDx=0;exitDy=0;entryX=0.75;entryY=0;entryDx=0;entryDy=0;" edge="1" parent="npHvEOHwPtpxPotPW_9_-9" source="npHvEOHwPtpxPotPW_9_-18" target="npHvEOHwPtpxPotPW_9_-31">
          <mxGeometry relative="1" as="geometry" />
        </mxCell>
        <mxCell id="npHvEOHwPtpxPotPW_9_-18" value="&lt;div&gt;auxiliary measurements&lt;/div&gt;&lt;div&gt;\(\textrm{aux} | \vec{\nu}_t \to \vec{\tilde{\nu}} \pm \vec{\delta_\nu}\)&lt;/div&gt;" style="rounded=1;whiteSpace=wrap;html=1;" vertex="1" parent="npHvEOHwPtpxPotPW_9_-9">
          <mxGeometry x="515" y="100" width="120" height="60" as="geometry" />
        </mxCell>
        <mxCell id="npHvEOHwPtpxPotPW_9_-19" style="edgeStyle=orthogonalEdgeStyle;rounded=0;orthogonalLoop=1;jettySize=auto;html=1;exitX=0.5;exitY=1;exitDx=0;exitDy=0;entryX=0.5;entryY=0;entryDx=0;entryDy=0;" edge="1" parent="npHvEOHwPtpxPotPW_9_-9" source="npHvEOHwPtpxPotPW_9_-21" target="npHvEOHwPtpxPotPW_9_-23">
          <mxGeometry relative="1" as="geometry">
            <Array as="points">
              <mxPoint x="505" y="390" />
              <mxPoint x="435" y="390" />
            </Array>
          </mxGeometry>
        </mxCell>
        <mxCell id="npHvEOHwPtpxPotPW_9_-20" style="edgeStyle=orthogonalEdgeStyle;rounded=0;orthogonalLoop=1;jettySize=auto;html=1;exitX=0.5;exitY=1;exitDx=0;exitDy=0;entryX=0.5;entryY=0;entryDx=0;entryDy=0;" edge="1" parent="npHvEOHwPtpxPotPW_9_-9" source="npHvEOHwPtpxPotPW_9_-21" target="npHvEOHwPtpxPotPW_9_-33">
          <mxGeometry relative="1" as="geometry">
            <Array as="points">
              <mxPoint x="505" y="390" />
              <mxPoint x="230" y="390" />
            </Array>
          </mxGeometry>
        </mxCell>
        <mxCell id="npHvEOHwPtpxPotPW_9_-21" value="&lt;div&gt;find \(\hat{\hat{\vec{\nu}}}\) that&amp;nbsp;&lt;/div&gt;&lt;div&gt;maximize \( \mathcal{L}\) at \(\Gamma^{\star}\)\(\mathcal{L}(\{E_i\}_k,&amp;nbsp;\tilde{\vec{\nu}} | \Gamma^{\star}, \hat{\hat{\vec{\nu}}}(\Gamma^{\star}) )\)&lt;/div&gt;" style="rounded=1;whiteSpace=wrap;html=1;" vertex="1" parent="npHvEOHwPtpxPotPW_9_-9">
          <mxGeometry x="435" y="300" width="140" height="70" as="geometry" />
        </mxCell>
        <mxCell id="npHvEOHwPtpxPotPW_9_-22" style="edgeStyle=orthogonalEdgeStyle;rounded=0;orthogonalLoop=1;jettySize=auto;html=1;exitX=0.5;exitY=1;exitDx=0;exitDy=0;entryX=0.25;entryY=0;entryDx=0;entryDy=0;" edge="1" parent="npHvEOHwPtpxPotPW_9_-9" source="npHvEOHwPtpxPotPW_9_-23" target="npHvEOHwPtpxPotPW_9_-45">
          <mxGeometry relative="1" as="geometry" />
        </mxCell>
        <mxCell id="npHvEOHwPtpxPotPW_9_-23" value="&lt;div&gt;generate toy data&lt;/div&gt;&lt;div&gt;&amp;nbsp;\(&amp;nbsp;\{E^\prime_i\}_k | \Gamma^{\star},&amp;nbsp; \hat{\hat{\vec{\nu}}}\)&lt;/div&gt;" style="rounded=1;whiteSpace=wrap;html=1;" vertex="1" parent="npHvEOHwPtpxPotPW_9_-9">
          <mxGeometry x="375" y="430" width="120" height="60" as="geometry" />
        </mxCell>
        <mxCell id="npHvEOHwPtpxPotPW_9_-24" style="edgeStyle=orthogonalEdgeStyle;rounded=0;orthogonalLoop=1;jettySize=auto;html=1;exitX=0.5;exitY=1;exitDx=0;exitDy=0;entryX=0.75;entryY=0;entryDx=0;entryDy=0;" edge="1" parent="npHvEOHwPtpxPotPW_9_-9" source="npHvEOHwPtpxPotPW_9_-25" target="npHvEOHwPtpxPotPW_9_-45">
          <mxGeometry relative="1" as="geometry" />
        </mxCell>
        <mxCell id="npHvEOHwPtpxPotPW_9_-25" value="&lt;div&gt;vary auxiliary measurements&lt;/div&gt;&lt;div&gt;\(&amp;nbsp;\tilde{\vec{\nu}} \pm \vec{\delta_\nu} \to \tilde{\vec{\nu}}^{\prime} \pm \vec{\delta_\nu} \)&lt;/div&gt;" style="rounded=1;whiteSpace=wrap;html=1;" vertex="1" parent="npHvEOHwPtpxPotPW_9_-9">
          <mxGeometry x="515" y="430" width="120" height="60" as="geometry" />
        </mxCell>
        <mxCell id="npHvEOHwPtpxPotPW_9_-26" style="edgeStyle=orthogonalEdgeStyle;rounded=0;orthogonalLoop=1;jettySize=auto;html=1;entryX=0.5;entryY=0;entryDx=0;entryDy=0;exitX=0.75;exitY=1;exitDx=0;exitDy=0;" edge="1" parent="npHvEOHwPtpxPotPW_9_-9" source="npHvEOHwPtpxPotPW_9_-27" target="npHvEOHwPtpxPotPW_9_-38">
          <mxGeometry relative="1" as="geometry">
            <mxPoint x="604.666666666667" y="620" as="targetPoint" />
            <Array as="points">
              <mxPoint x="430" y="820" />
            </Array>
          </mxGeometry>
        </mxCell>
        <mxCell id="npHvEOHwPtpxPotPW_9_-27" value="&lt;div&gt;calculate toy test statistic&lt;/div&gt;&lt;div&gt;&amp;nbsp;\(\tilde{t}_{\Gamma^{\star}|\Gamma^{\star}}^{\prime} = -2 \ln{ \dfrac{\mathcal{L}^\prime(\{E^\prime_i\}_k,&amp;nbsp;\tilde{\vec{\nu}}^{\prime}&amp;nbsp; |&amp;nbsp; \Gamma^{\star} , \hat{\hat{\vec{\nu}}}(\Gamma^{\star}) )}{\mathcal{L}^\prime(&amp;nbsp;\{E^\prime_i\}_k,\tilde{\vec{\nu}}^{\prime}&amp;nbsp; |&amp;nbsp; \hat{\Gamma} , \hat{\vec{\nu}})}} \)&lt;/div&gt;" style="rounded=1;whiteSpace=wrap;html=1;" vertex="1" parent="npHvEOHwPtpxPotPW_9_-9">
          <mxGeometry x="257.5" y="740" width="240" height="80" as="geometry" />
        </mxCell>
        <mxCell id="npHvEOHwPtpxPotPW_9_-28" style="edgeStyle=orthogonalEdgeStyle;rounded=0;orthogonalLoop=1;jettySize=auto;html=1;exitX=0;exitY=0.5;exitDx=0;exitDy=0;entryX=1;entryY=0.5;entryDx=0;entryDy=0;" edge="1" parent="npHvEOHwPtpxPotPW_9_-9" source="npHvEOHwPtpxPotPW_9_-31" target="npHvEOHwPtpxPotPW_9_-48">
          <mxGeometry relative="1" as="geometry" />
        </mxCell>
        <mxCell id="npHvEOHwPtpxPotPW_9_-29" style="edgeStyle=orthogonalEdgeStyle;rounded=0;orthogonalLoop=1;jettySize=auto;html=1;exitX=0.5;exitY=1;exitDx=0;exitDy=0;entryX=0.5;entryY=0;entryDx=0;entryDy=0;" edge="1" parent="npHvEOHwPtpxPotPW_9_-9" source="npHvEOHwPtpxPotPW_9_-31" target="npHvEOHwPtpxPotPW_9_-21">
          <mxGeometry relative="1" as="geometry" />
        </mxCell>
        <mxCell id="npHvEOHwPtpxPotPW_9_-30" style="edgeStyle=orthogonalEdgeStyle;rounded=0;orthogonalLoop=1;jettySize=auto;html=1;exitX=1;exitY=0.5;exitDx=0;exitDy=0;entryX=0.5;entryY=0;entryDx=0;entryDy=0;" edge="1" parent="npHvEOHwPtpxPotPW_9_-9" source="npHvEOHwPtpxPotPW_9_-31" target="npHvEOHwPtpxPotPW_9_-67">
          <mxGeometry relative="1" as="geometry" />
        </mxCell>
        <mxCell id="npHvEOHwPtpxPotPW_9_-31" value="&lt;div&gt;define data likelihood&lt;/div&gt;&lt;div&gt;\(\mathcal{L}( \{E_i\}_k,&amp;nbsp;\tilde{\vec{\nu}} | \Gamma, \vec{\nu}&amp;nbsp; ) \)&lt;br&gt;&lt;/div&gt;" style="rounded=1;whiteSpace=wrap;html=1;" vertex="1" parent="npHvEOHwPtpxPotPW_9_-9">
          <mxGeometry x="445" y="200" width="120" height="60" as="geometry" />
        </mxCell>
        <mxCell id="npHvEOHwPtpxPotPW_9_-32" style="edgeStyle=orthogonalEdgeStyle;rounded=0;orthogonalLoop=1;jettySize=auto;html=1;exitX=0.5;exitY=1;exitDx=0;exitDy=0;entryX=0.25;entryY=0;entryDx=0;entryDy=0;" edge="1" parent="npHvEOHwPtpxPotPW_9_-9" source="npHvEOHwPtpxPotPW_9_-33" target="npHvEOHwPtpxPotPW_9_-40">
          <mxGeometry relative="1" as="geometry" />
        </mxCell>
        <mxCell id="npHvEOHwPtpxPotPW_9_-33" value="&lt;div&gt;evaluate data test statistic&lt;/div&gt;&lt;div&gt;&amp;nbsp;\(\tilde{t}_{\Gamma^{\star}} = -2 \ln{ \dfrac{\mathcal{L}(&amp;nbsp;\{E_i\}_k, \tilde{\vec{\nu}}&amp;nbsp; |&amp;nbsp; \Gamma^{\star} , \hat{\hat{\vec{\nu}}}(\Gamma^{\star}))}{\mathcal{L}(\{E_i\}_k,&amp;nbsp;\tilde{\vec{\nu}}&amp;nbsp; |&amp;nbsp; \hat{\Gamma} , \hat{\vec{\nu}} )}} \)&lt;/div&gt;" style="rounded=1;whiteSpace=wrap;html=1;" vertex="1" parent="npHvEOHwPtpxPotPW_9_-9">
          <mxGeometry x="120" y="880" width="220" height="80" as="geometry" />
        </mxCell>
        <mxCell id="npHvEOHwPtpxPotPW_9_-34" value="repeat many times " style="text;html=1;align=center;verticalAlign=middle;resizable=0;points=[];autosize=1;strokeColor=none;fillColor=none;fontColor=#FF5D07;fontStyle=0;fontSize=18;" vertex="1" parent="npHvEOHwPtpxPotPW_9_-9">
          <mxGeometry x="250" y="820" width="170" height="40" as="geometry" />
        </mxCell>
        <mxCell id="npHvEOHwPtpxPotPW_9_-35" style="edgeStyle=orthogonalEdgeStyle;rounded=0;orthogonalLoop=1;jettySize=auto;html=1;exitX=0.5;exitY=1;exitDx=0;exitDy=0;entryX=0.5;entryY=0;entryDx=0;entryDy=0;" edge="1" parent="npHvEOHwPtpxPotPW_9_-9" source="npHvEOHwPtpxPotPW_9_-38" target="npHvEOHwPtpxPotPW_9_-40">
          <mxGeometry relative="1" as="geometry" />
        </mxCell>
        <mxCell id="npHvEOHwPtpxPotPW_9_-36" style="edgeStyle=orthogonalEdgeStyle;rounded=0;orthogonalLoop=1;jettySize=auto;html=1;exitX=0.75;exitY=1;exitDx=0;exitDy=0;entryX=0.25;entryY=0;entryDx=0;entryDy=0;jumpStyle=gap;" edge="1" parent="npHvEOHwPtpxPotPW_9_-9" source="npHvEOHwPtpxPotPW_9_-38" target="npHvEOHwPtpxPotPW_9_-73">
          <mxGeometry relative="1" as="geometry" />
        </mxCell>
        <mxCell id="npHvEOHwPtpxPotPW_9_-37" style="edgeStyle=orthogonalEdgeStyle;rounded=0;orthogonalLoop=1;jettySize=auto;html=1;exitX=0.75;exitY=1;exitDx=0;exitDy=0;entryX=0.25;entryY=0;entryDx=0;entryDy=0;" edge="1" parent="npHvEOHwPtpxPotPW_9_-9" source="npHvEOHwPtpxPotPW_9_-38" target="npHvEOHwPtpxPotPW_9_-85">
          <mxGeometry relative="1" as="geometry" />
        </mxCell>
        <mxCell id="npHvEOHwPtpxPotPW_9_-38" value="build distribution of test statistics \( p(\tilde{t}_{\Gamma^{\star}|\Gamma^{\star}}^{\prime} ) \)" style="rounded=1;whiteSpace=wrap;html=1;" vertex="1" parent="npHvEOHwPtpxPotPW_9_-9">
          <mxGeometry x="365" y="880" width="130" height="80" as="geometry" />
        </mxCell>
        <mxCell id="npHvEOHwPtpxPotPW_9_-39" style="edgeStyle=orthogonalEdgeStyle;rounded=0;orthogonalLoop=1;jettySize=auto;html=1;exitX=0.5;exitY=1;exitDx=0;exitDy=0;entryX=0.5;entryY=0;entryDx=0;entryDy=0;" edge="1" parent="npHvEOHwPtpxPotPW_9_-9" source="npHvEOHwPtpxPotPW_9_-40" target="npHvEOHwPtpxPotPW_9_-41">
          <mxGeometry relative="1" as="geometry">
            <mxPoint x="444.68965517241395" y="990" as="targetPoint" />
          </mxGeometry>
        </mxCell>
        <mxCell id="npHvEOHwPtpxPotPW_9_-40" value="&lt;div&gt;evaluate data \(p\)-value&amp;nbsp;&lt;/div&gt;&lt;div&gt;to reject \(\Gamma^{\star}\) hypothesis&lt;/div&gt;" style="rounded=1;whiteSpace=wrap;html=1;" vertex="1" parent="npHvEOHwPtpxPotPW_9_-9">
          <mxGeometry x="365" y="1000" width="130" height="80" as="geometry" />
        </mxCell>
        <mxCell id="npHvEOHwPtpxPotPW_9_-41" value="exclude all \(\Gamma^{\star}\)&amp;nbsp; rejected at \(\geq\)90% C.L." style="rounded=1;whiteSpace=wrap;html=1;" vertex="1" parent="npHvEOHwPtpxPotPW_9_-9">
          <mxGeometry x="365" y="1120" width="130" height="60" as="geometry" />
        </mxCell>
        <mxCell id="npHvEOHwPtpxPotPW_9_-42" style="edgeStyle=orthogonalEdgeStyle;rounded=0;orthogonalLoop=1;jettySize=auto;html=1;exitX=0.25;exitY=1;exitDx=0;exitDy=0;entryX=0.5;entryY=0;entryDx=0;entryDy=0;" edge="1" parent="npHvEOHwPtpxPotPW_9_-9" source="npHvEOHwPtpxPotPW_9_-45" target="npHvEOHwPtpxPotPW_9_-80">
          <mxGeometry relative="1" as="geometry">
            <mxPoint x="424.9999999999998" y="630" as="targetPoint" />
          </mxGeometry>
        </mxCell>
        <mxCell id="npHvEOHwPtpxPotPW_9_-43" style="edgeStyle=orthogonalEdgeStyle;rounded=0;orthogonalLoop=1;jettySize=auto;html=1;exitX=0.5;exitY=1;exitDx=0;exitDy=0;entryX=0.5;entryY=0;entryDx=0;entryDy=0;" edge="1" parent="npHvEOHwPtpxPotPW_9_-9" source="npHvEOHwPtpxPotPW_9_-45" target="npHvEOHwPtpxPotPW_9_-79">
          <mxGeometry relative="1" as="geometry">
            <mxPoint x="584.9999999999998" y="630" as="targetPoint" />
            <Array as="points" />
          </mxGeometry>
        </mxCell>
        <mxCell id="npHvEOHwPtpxPotPW_9_-44" style="edgeStyle=orthogonalEdgeStyle;rounded=0;orthogonalLoop=1;jettySize=auto;html=1;exitX=0.75;exitY=1;exitDx=0;exitDy=0;entryX=0.5;entryY=0;entryDx=0;entryDy=0;" edge="1" parent="npHvEOHwPtpxPotPW_9_-9" source="npHvEOHwPtpxPotPW_9_-45" target="npHvEOHwPtpxPotPW_9_-75">
          <mxGeometry relative="1" as="geometry" />
        </mxCell>
        <mxCell id="npHvEOHwPtpxPotPW_9_-45" value="&lt;div&gt;define toy likelihood&lt;/div&gt;&lt;div&gt;\(\mathcal{L}^\prime( \{E^\prime_i\}_k,&amp;nbsp;\tilde{\vec{\nu}}^{\prime} | \Gamma, \vec{\nu}&amp;nbsp;&amp;nbsp; ) \)&lt;br&gt;&lt;/div&gt;" style="rounded=1;whiteSpace=wrap;html=1;" vertex="1" parent="npHvEOHwPtpxPotPW_9_-9">
          <mxGeometry x="440" y="530" width="130" height="60" as="geometry" />
        </mxCell>
        <mxCell id="npHvEOHwPtpxPotPW_9_-46" value="repeat for all \( \Gamma^{\star} \geq 0\) " style="text;html=1;align=center;verticalAlign=middle;resizable=0;points=[];autosize=1;strokeColor=none;fillColor=none;fontColor=#D907FF;fontStyle=0;fontSize=18;" vertex="1" parent="npHvEOHwPtpxPotPW_9_-9">
          <mxGeometry x="30" y="1060" width="340" height="40" as="geometry" />
        </mxCell>
        <mxCell id="npHvEOHwPtpxPotPW_9_-47" style="edgeStyle=orthogonalEdgeStyle;rounded=0;orthogonalLoop=1;jettySize=auto;html=1;exitX=0.5;exitY=1;exitDx=0;exitDy=0;entryX=0.388;entryY=0;entryDx=0;entryDy=0;entryPerimeter=0;" edge="1" parent="npHvEOHwPtpxPotPW_9_-9" source="npHvEOHwPtpxPotPW_9_-48" target="npHvEOHwPtpxPotPW_9_-33">
          <mxGeometry relative="1" as="geometry">
            <Array as="points">
              <mxPoint x="205" y="880" />
            </Array>
          </mxGeometry>
        </mxCell>
        <mxCell id="npHvEOHwPtpxPotPW_9_-48" value="&lt;div&gt;find \(\hat{\Gamma} \geq 0, \hat{\vec{\nu}}\) that&amp;nbsp;maximize \( \mathcal{L}\) \(\mathcal{L}(\{E_i\}_k,&amp;nbsp;\tilde{\vec{\nu}}) | \hat{\Gamma} , \hat{\vec{\nu}}\)&lt;/div&gt;" style="rounded=1;whiteSpace=wrap;html=1;" vertex="1" parent="npHvEOHwPtpxPotPW_9_-9">
          <mxGeometry x="135" y="195" width="140" height="70" as="geometry" />
        </mxCell>
        <mxCell id="npHvEOHwPtpxPotPW_9_-49" style="edgeStyle=orthogonalEdgeStyle;rounded=0;orthogonalLoop=1;jettySize=auto;html=1;exitX=0.25;exitY=1;exitDx=0;exitDy=0;entryX=0.75;entryY=0;entryDx=0;entryDy=0;" edge="1" parent="npHvEOHwPtpxPotPW_9_-9" source="npHvEOHwPtpxPotPW_9_-79" target="npHvEOHwPtpxPotPW_9_-27">
          <mxGeometry relative="1" as="geometry">
            <mxPoint x="584.9999999999998" y="700" as="sourcePoint" />
          </mxGeometry>
        </mxCell>
        <mxCell id="npHvEOHwPtpxPotPW_9_-50" style="edgeStyle=orthogonalEdgeStyle;rounded=0;orthogonalLoop=1;jettySize=auto;html=1;exitX=0.5;exitY=1;exitDx=0;exitDy=0;entryX=0.5;entryY=0;entryDx=0;entryDy=0;" edge="1" parent="npHvEOHwPtpxPotPW_9_-9" source="npHvEOHwPtpxPotPW_9_-80" target="npHvEOHwPtpxPotPW_9_-27">
          <mxGeometry relative="1" as="geometry">
            <mxPoint x="424.9999999999998" y="700" as="sourcePoint" />
            <mxPoint x="425" y="740" as="targetPoint" />
            <Array as="points" />
          </mxGeometry>
        </mxCell>
        <mxCell id="npHvEOHwPtpxPotPW_9_-51" value="" style="rounded=0;whiteSpace=wrap;html=1;fillColor=none;dashed=1;dashPattern=8 8;strokeColor=#07A9FF;" vertex="1" parent="npHvEOHwPtpxPotPW_9_-9">
          <mxGeometry x="785" y="410" width="340" height="450" as="geometry" />
        </mxCell>
        <mxCell id="npHvEOHwPtpxPotPW_9_-52" style="edgeStyle=orthogonalEdgeStyle;rounded=0;orthogonalLoop=1;jettySize=auto;html=1;exitX=0.5;exitY=1;exitDx=0;exitDy=0;entryX=0.25;entryY=0;entryDx=0;entryDy=0;" edge="1" parent="npHvEOHwPtpxPotPW_9_-9" source="npHvEOHwPtpxPotPW_9_-53" target="npHvEOHwPtpxPotPW_9_-61">
          <mxGeometry relative="1" as="geometry" />
        </mxCell>
        <mxCell id="npHvEOHwPtpxPotPW_9_-53" value="&lt;div&gt;generate toy data&lt;/div&gt;&lt;div&gt;&amp;nbsp;\(&amp;nbsp;\{E^\prime_i\}_k | \Gamma_0,&amp;nbsp; \hat{\hat{\vec{\nu}}}\)&lt;/div&gt;" style="rounded=1;whiteSpace=wrap;html=1;" vertex="1" parent="npHvEOHwPtpxPotPW_9_-9">
          <mxGeometry x="825" y="430" width="120" height="60" as="geometry" />
        </mxCell>
        <mxCell id="npHvEOHwPtpxPotPW_9_-54" style="edgeStyle=orthogonalEdgeStyle;rounded=0;orthogonalLoop=1;jettySize=auto;html=1;exitX=0.5;exitY=1;exitDx=0;exitDy=0;entryX=0.75;entryY=0;entryDx=0;entryDy=0;" edge="1" parent="npHvEOHwPtpxPotPW_9_-9" source="npHvEOHwPtpxPotPW_9_-55" target="npHvEOHwPtpxPotPW_9_-61">
          <mxGeometry relative="1" as="geometry" />
        </mxCell>
        <mxCell id="npHvEOHwPtpxPotPW_9_-55" value="&lt;div&gt;vary auxiliary measurements&lt;/div&gt;&lt;div&gt;\(&amp;nbsp;\tilde{\vec{\nu}} \pm \vec{\delta_\nu} \to \tilde{\vec{\nu}}^{\prime} \pm \vec{\delta_\nu} \)&lt;/div&gt;" style="rounded=1;whiteSpace=wrap;html=1;" vertex="1" parent="npHvEOHwPtpxPotPW_9_-9">
          <mxGeometry x="965" y="430" width="120" height="60" as="geometry" />
        </mxCell>
        <mxCell id="npHvEOHwPtpxPotPW_9_-56" style="edgeStyle=orthogonalEdgeStyle;rounded=0;orthogonalLoop=1;jettySize=auto;html=1;exitX=0.5;exitY=1;exitDx=0;exitDy=0;entryX=0.5;entryY=0;entryDx=0;entryDy=0;" edge="1" parent="npHvEOHwPtpxPotPW_9_-9" source="npHvEOHwPtpxPotPW_9_-57" target="npHvEOHwPtpxPotPW_9_-71">
          <mxGeometry relative="1" as="geometry">
            <mxPoint x="955" y="880" as="targetPoint" />
          </mxGeometry>
        </mxCell>
        <mxCell id="npHvEOHwPtpxPotPW_9_-57" value="&lt;div&gt;calculate toy test statistic&lt;/div&gt;&lt;div&gt;&amp;nbsp;\(\tilde{t}_{\Gamma^{\star} | \Gamma_0}^{\prime} = -2 \ln{ \dfrac{\mathcal{L}^\prime(\{E^\prime_i\}_k,&amp;nbsp;\tilde{\vec{\nu}}^{\prime}&amp;nbsp; |&amp;nbsp; \Gamma^{\star} , \hat{\hat{\vec{\nu}}}(\Gamma^{\star})&amp;nbsp; )}{\mathcal{L}^\prime(\{E^\prime_i\}_k,\tilde{\vec{\nu}}^{\prime}&amp;nbsp; |&amp;nbsp; \hat{\Gamma} , \hat{\vec{\nu}} )}} \)&lt;/div&gt;" style="rounded=1;whiteSpace=wrap;html=1;" vertex="1" parent="npHvEOHwPtpxPotPW_9_-9">
          <mxGeometry x="835" y="740" width="240" height="80" as="geometry" />
        </mxCell>
        <mxCell id="npHvEOHwPtpxPotPW_9_-58" value="repeat many times " style="text;html=1;align=center;verticalAlign=middle;resizable=0;points=[];autosize=1;strokeColor=none;fillColor=none;fontColor=#07A9FF;fontStyle=0;fontSize=18;" vertex="1" parent="npHvEOHwPtpxPotPW_9_-9">
          <mxGeometry x="785" y="820" width="170" height="40" as="geometry" />
        </mxCell>
        <mxCell id="npHvEOHwPtpxPotPW_9_-59" style="edgeStyle=orthogonalEdgeStyle;rounded=0;orthogonalLoop=1;jettySize=auto;html=1;exitX=0.25;exitY=1;exitDx=0;exitDy=0;entryX=0.5;entryY=0;entryDx=0;entryDy=0;" edge="1" parent="npHvEOHwPtpxPotPW_9_-9" source="npHvEOHwPtpxPotPW_9_-61" target="npHvEOHwPtpxPotPW_9_-65">
          <mxGeometry relative="1" as="geometry" />
        </mxCell>
        <mxCell id="npHvEOHwPtpxPotPW_9_-60" style="edgeStyle=orthogonalEdgeStyle;rounded=0;orthogonalLoop=1;jettySize=auto;html=1;exitX=0.75;exitY=1;exitDx=0;exitDy=0;entryX=0.5;entryY=0;entryDx=0;entryDy=0;" edge="1" parent="npHvEOHwPtpxPotPW_9_-9" source="npHvEOHwPtpxPotPW_9_-61" target="npHvEOHwPtpxPotPW_9_-63">
          <mxGeometry relative="1" as="geometry" />
        </mxCell>
        <mxCell id="npHvEOHwPtpxPotPW_9_-61" value="&lt;div&gt;define toy likelihood&lt;/div&gt;&lt;div&gt;\(\mathcal{L}^\prime(\{E^\prime_i\}_k,&amp;nbsp;\tilde{\vec{\nu}}^{\prime}&amp;nbsp; | \Gamma, \vec{\nu}&amp;nbsp; ) \)&lt;br&gt;&lt;/div&gt;" style="rounded=1;whiteSpace=wrap;html=1;" vertex="1" parent="npHvEOHwPtpxPotPW_9_-9">
          <mxGeometry x="890" y="530" width="130" height="60" as="geometry" />
        </mxCell>
        <mxCell id="npHvEOHwPtpxPotPW_9_-62" style="edgeStyle=orthogonalEdgeStyle;rounded=0;orthogonalLoop=1;jettySize=auto;html=1;exitX=0.5;exitY=1;exitDx=0;exitDy=0;entryX=0.75;entryY=0;entryDx=0;entryDy=0;" edge="1" parent="npHvEOHwPtpxPotPW_9_-9" source="npHvEOHwPtpxPotPW_9_-63" target="npHvEOHwPtpxPotPW_9_-57">
          <mxGeometry relative="1" as="geometry" />
        </mxCell>
        <mxCell id="npHvEOHwPtpxPotPW_9_-63" value="&lt;div&gt;find \(\hat{\hat{\vec{\nu}}}\) that&amp;nbsp;&lt;/div&gt;&lt;div&gt;maximize \( \mathcal{L}^\prime\) at \(\Gamma^{\star}\)\(\mathcal{L}^\prime(&amp;nbsp; &amp;nbsp;\{E^\prime_i\}_k,&amp;nbsp;\tilde{\vec{\nu}}^{\prime}&amp;nbsp; |&amp;nbsp; \Gamma^{\star}, \hat{\hat{\vec{\nu}}}(\Gamma^{\star}) )\)&lt;/div&gt;" style="rounded=1;whiteSpace=wrap;html=1;" vertex="1" parent="npHvEOHwPtpxPotPW_9_-9">
          <mxGeometry x="965" y="630" width="140" height="70" as="geometry" />
        </mxCell>
        <mxCell id="npHvEOHwPtpxPotPW_9_-64" style="edgeStyle=orthogonalEdgeStyle;rounded=0;orthogonalLoop=1;jettySize=auto;html=1;exitX=0.5;exitY=1;exitDx=0;exitDy=0;entryX=0.25;entryY=0;entryDx=0;entryDy=0;" edge="1" parent="npHvEOHwPtpxPotPW_9_-9" source="npHvEOHwPtpxPotPW_9_-65" target="npHvEOHwPtpxPotPW_9_-57">
          <mxGeometry relative="1" as="geometry" />
        </mxCell>
        <mxCell id="npHvEOHwPtpxPotPW_9_-65" value="&lt;div&gt;find \(\hat{\Gamma} \geq 0, \hat{\vec{\nu}}\) that&amp;nbsp;maximize \( \mathcal{L}^\prime\) \(\mathcal{L}^\prime(\{E^\prime_i\}_k,&amp;nbsp;\tilde{\vec{\nu}}^{\prime}&amp;nbsp; |&amp;nbsp; \hat{\Gamma} , \hat{\vec{\nu}}&amp;nbsp; )\)&lt;/div&gt;" style="rounded=1;whiteSpace=wrap;html=1;" vertex="1" parent="npHvEOHwPtpxPotPW_9_-9">
          <mxGeometry x="805" y="630" width="140" height="70" as="geometry" />
        </mxCell>
        <mxCell id="npHvEOHwPtpxPotPW_9_-66" style="edgeStyle=orthogonalEdgeStyle;rounded=0;orthogonalLoop=1;jettySize=auto;html=1;exitX=0.5;exitY=1;exitDx=0;exitDy=0;entryX=0.5;entryY=0;entryDx=0;entryDy=0;" edge="1" parent="npHvEOHwPtpxPotPW_9_-9" source="npHvEOHwPtpxPotPW_9_-67" target="npHvEOHwPtpxPotPW_9_-53">
          <mxGeometry relative="1" as="geometry">
            <Array as="points">
              <mxPoint x="955" y="390" />
              <mxPoint x="885" y="390" />
            </Array>
          </mxGeometry>
        </mxCell>
        <mxCell id="npHvEOHwPtpxPotPW_9_-67" value="&lt;div&gt;find \(\hat{\hat{\vec{\nu}}}\) that&amp;nbsp;&lt;/div&gt;&lt;div&gt;maximize \( \mathcal{L}\) at \(\Gamma_{0}\)\(\mathcal{L}(\{E_i\}_k, \tilde{\vec{\nu}}&amp;nbsp; | \Gamma_{0}, \hat{\hat{\vec{\nu}}}(\Gamma_{0}) )\)&lt;/div&gt;" style="rounded=1;whiteSpace=wrap;html=1;" vertex="1" parent="npHvEOHwPtpxPotPW_9_-9">
          <mxGeometry x="885" y="300" width="140" height="70" as="geometry" />
        </mxCell>
        <mxCell id="npHvEOHwPtpxPotPW_9_-68" style="edgeStyle=orthogonalEdgeStyle;rounded=0;orthogonalLoop=1;jettySize=auto;html=1;exitX=0.75;exitY=1;exitDx=0;exitDy=0;entryX=0.5;entryY=0;entryDx=0;entryDy=0;jumpStyle=gap;" edge="1" parent="npHvEOHwPtpxPotPW_9_-9" source="npHvEOHwPtpxPotPW_9_-18" target="npHvEOHwPtpxPotPW_9_-25">
          <mxGeometry relative="1" as="geometry">
            <Array as="points">
              <mxPoint x="605" y="390" />
              <mxPoint x="575" y="390" />
            </Array>
          </mxGeometry>
        </mxCell>
        <mxCell id="npHvEOHwPtpxPotPW_9_-69" style="edgeStyle=orthogonalEdgeStyle;rounded=0;orthogonalLoop=1;jettySize=auto;html=1;exitX=0.75;exitY=1;exitDx=0;exitDy=0;entryX=0.5;entryY=0;entryDx=0;entryDy=0;jumpStyle=gap;" edge="1" parent="npHvEOHwPtpxPotPW_9_-9" source="npHvEOHwPtpxPotPW_9_-18" target="npHvEOHwPtpxPotPW_9_-55">
          <mxGeometry relative="1" as="geometry">
            <Array as="points">
              <mxPoint x="605" y="210" />
              <mxPoint x="1040" y="210" />
              <mxPoint x="1040" y="390" />
              <mxPoint x="1025" y="390" />
            </Array>
          </mxGeometry>
        </mxCell>
        <mxCell id="npHvEOHwPtpxPotPW_9_-70" style="edgeStyle=orthogonalEdgeStyle;rounded=0;orthogonalLoop=1;jettySize=auto;html=1;exitX=0.5;exitY=1;exitDx=0;exitDy=0;entryX=0.5;entryY=0;entryDx=0;entryDy=0;" edge="1" parent="npHvEOHwPtpxPotPW_9_-9" source="npHvEOHwPtpxPotPW_9_-71" target="npHvEOHwPtpxPotPW_9_-73">
          <mxGeometry relative="1" as="geometry" />
        </mxCell>
        <mxCell id="npHvEOHwPtpxPotPW_9_-71" value="find median \( \tilde{t}_{\Gamma^{\star} | \Gamma_0}^{\prime} \)" style="rounded=1;whiteSpace=wrap;html=1;" vertex="1" parent="npHvEOHwPtpxPotPW_9_-9">
          <mxGeometry x="890" y="880" width="130" height="80" as="geometry" />
        </mxCell>
        <mxCell id="npHvEOHwPtpxPotPW_9_-72" style="edgeStyle=orthogonalEdgeStyle;rounded=0;orthogonalLoop=1;jettySize=auto;html=1;exitX=0.5;exitY=1;exitDx=0;exitDy=0;entryX=0.5;entryY=0;entryDx=0;entryDy=0;" edge="1" parent="npHvEOHwPtpxPotPW_9_-9" source="npHvEOHwPtpxPotPW_9_-73" target="npHvEOHwPtpxPotPW_9_-74">
          <mxGeometry relative="1" as="geometry" />
        </mxCell>
        <mxCell id="npHvEOHwPtpxPotPW_9_-73" value="&lt;div&gt;evaluate \(p\)-value to&amp;nbsp;&lt;/div&gt;&lt;div&gt;reject \(\Gamma^{\star}\) hypothesis&amp;nbsp;&lt;/div&gt;&lt;div&gt;at median \( \tilde{t}_{\Gamma^{\star} | \Gamma_0}^{\prime} \) &lt;/div&gt;" style="rounded=1;whiteSpace=wrap;html=1;" vertex="1" parent="npHvEOHwPtpxPotPW_9_-9">
          <mxGeometry x="890" y="1000" width="130" height="80" as="geometry" />
        </mxCell>
        <mxCell id="npHvEOHwPtpxPotPW_9_-74" value="exclusion sensitivity at 90% C.L." style="rounded=1;whiteSpace=wrap;html=1;" vertex="1" parent="npHvEOHwPtpxPotPW_9_-9">
          <mxGeometry x="890" y="1120" width="130" height="60" as="geometry" />
        </mxCell>
        <mxCell id="npHvEOHwPtpxPotPW_9_-75" value="&lt;div&gt;find \(\hat{\hat{\vec{\nu}}}\) that&amp;nbsp;&lt;/div&gt;&lt;div&gt;maximize \( \mathcal{L}^\prime\) at \(\Gamma_0\)\(\mathcal{L}^\prime(&amp;nbsp;\{E^\prime_i\}_k,&amp;nbsp;\tilde{\vec{\nu}}^{\prime}&amp;nbsp; |&amp;nbsp; \Gamma_0, \hat{\hat{\vec{\nu}}}(\Gamma_0) )\)&lt;/div&gt;" style="rounded=1;whiteSpace=wrap;html=1;" vertex="1" parent="npHvEOHwPtpxPotPW_9_-9">
          <mxGeometry x="595" y="630" width="140" height="70" as="geometry" />
        </mxCell>
        <mxCell id="npHvEOHwPtpxPotPW_9_-76" style="edgeStyle=orthogonalEdgeStyle;rounded=0;orthogonalLoop=1;jettySize=auto;html=1;exitX=0.5;exitY=1;exitDx=0;exitDy=0;entryX=0.5;entryY=0;entryDx=0;entryDy=0;" edge="1" parent="npHvEOHwPtpxPotPW_9_-9" source="npHvEOHwPtpxPotPW_9_-77" target="npHvEOHwPtpxPotPW_9_-83">
          <mxGeometry relative="1" as="geometry" />
        </mxCell>
        <mxCell id="npHvEOHwPtpxPotPW_9_-77" value="&lt;div&gt;calculate toy test statistic&lt;/div&gt;&lt;div&gt;&amp;nbsp;\(\tilde{t}_{\Gamma_0|\Gamma^{\star}}^{\prime} = -2 \ln{ \dfrac{\mathcal{L}^\prime(\{E^\prime_i\}_k,&amp;nbsp;\tilde{\vec{\nu}}^{\prime}&amp;nbsp; |&amp;nbsp; \Gamma_0 , \hat{\hat{\vec{\nu}}}(\Gamma_0)&amp;nbsp; )}{\mathcal{L}^\prime(&amp;nbsp; &amp;nbsp;\{E^\prime_i\}_k,\tilde{\vec{\nu}}^{\prime}&amp;nbsp; |&amp;nbsp; \hat{\Gamma} , \hat{\vec{\nu}})}} \)&lt;/div&gt;" style="rounded=1;whiteSpace=wrap;html=1;" vertex="1" parent="npHvEOHwPtpxPotPW_9_-9">
          <mxGeometry x="512.5" y="740" width="240" height="80" as="geometry" />
        </mxCell>
        <mxCell id="npHvEOHwPtpxPotPW_9_-78" style="edgeStyle=orthogonalEdgeStyle;rounded=0;orthogonalLoop=1;jettySize=auto;html=1;exitX=0.5;exitY=1;exitDx=0;exitDy=0;entryX=0.5;entryY=0;entryDx=0;entryDy=0;" edge="1" parent="npHvEOHwPtpxPotPW_9_-9" source="npHvEOHwPtpxPotPW_9_-75" target="npHvEOHwPtpxPotPW_9_-77">
          <mxGeometry relative="1" as="geometry">
            <mxPoint x="745" y="740" as="targetPoint" />
          </mxGeometry>
        </mxCell>
        <mxCell id="npHvEOHwPtpxPotPW_9_-79" value="&lt;div&gt;find \(\hat{\Gamma} \geq 0, \hat{\vec{\nu}}\) that&amp;nbsp;maximize \( \mathcal{L}^\prime\) \(\mathcal{L}^\prime(&amp;nbsp;\{E^\prime_i\}_k,&amp;nbsp;\tilde{\vec{\nu}}^{\prime}&amp;nbsp;&amp;nbsp; | \hat{\Gamma} , \hat{\vec{\nu}} )\)&lt;/div&gt;" style="rounded=1;whiteSpace=wrap;html=1;" vertex="1" parent="npHvEOHwPtpxPotPW_9_-9">
          <mxGeometry x="435" y="630" width="140" height="70" as="geometry" />
        </mxCell>
        <mxCell id="npHvEOHwPtpxPotPW_9_-80" value="&lt;div&gt;find \(\hat{\hat{\vec{\nu}}}\) that&amp;nbsp;&lt;/div&gt;&lt;div&gt;maximize \( \mathcal{L}^\prime\) at \(\Gamma^{\star}\)\(\mathcal{L}^\prime(\{E^\prime_i\}_k,&amp;nbsp;\tilde{\vec{\nu}}^{\prime}&amp;nbsp;&amp;nbsp; | \Gamma^{\star}, \hat{\hat{\vec{\nu}}}(\Gamma^{\star}) )\)&lt;/div&gt;" style="rounded=1;whiteSpace=wrap;html=1;" vertex="1" parent="npHvEOHwPtpxPotPW_9_-9">
          <mxGeometry x="275" y="630" width="140" height="70" as="geometry" />
        </mxCell>
        <mxCell id="npHvEOHwPtpxPotPW_9_-81" style="edgeStyle=orthogonalEdgeStyle;rounded=0;orthogonalLoop=1;jettySize=auto;html=1;exitX=0.75;exitY=1;exitDx=0;exitDy=0;entryX=0.25;entryY=0;entryDx=0;entryDy=0;" edge="1" parent="npHvEOHwPtpxPotPW_9_-9" source="npHvEOHwPtpxPotPW_9_-79" target="npHvEOHwPtpxPotPW_9_-77">
          <mxGeometry relative="1" as="geometry">
            <mxPoint x="560" y="710" as="sourcePoint" />
            <mxPoint x="545" y="750" as="targetPoint" />
          </mxGeometry>
        </mxCell>
        <mxCell id="npHvEOHwPtpxPotPW_9_-82" style="edgeStyle=orthogonalEdgeStyle;rounded=0;orthogonalLoop=1;jettySize=auto;html=1;exitX=0.5;exitY=1;exitDx=0;exitDy=0;entryX=0.5;entryY=0;entryDx=0;entryDy=0;jumpStyle=gap;" edge="1" parent="npHvEOHwPtpxPotPW_9_-9" source="npHvEOHwPtpxPotPW_9_-83" target="npHvEOHwPtpxPotPW_9_-85">
          <mxGeometry relative="1" as="geometry" />
        </mxCell>
        <mxCell id="npHvEOHwPtpxPotPW_9_-83" value="build distribution of test statistics \( p(\tilde{t}_{\Gamma_0|\Gamma^{\star}}^{\prime} ) \)" style="rounded=1;whiteSpace=wrap;html=1;" vertex="1" parent="npHvEOHwPtpxPotPW_9_-9">
          <mxGeometry x="567.5" y="880" width="130" height="80" as="geometry" />
        </mxCell>
        <mxCell id="npHvEOHwPtpxPotPW_9_-84" style="edgeStyle=orthogonalEdgeStyle;rounded=0;orthogonalLoop=1;jettySize=auto;html=1;exitX=0.5;exitY=1;exitDx=0;exitDy=0;entryX=0.5;entryY=0;entryDx=0;entryDy=0;" edge="1" parent="npHvEOHwPtpxPotPW_9_-9" source="npHvEOHwPtpxPotPW_9_-85" target="npHvEOHwPtpxPotPW_9_-86">
          <mxGeometry relative="1" as="geometry" />
        </mxCell>
        <mxCell id="npHvEOHwPtpxPotPW_9_-85" value="&lt;div&gt;evaluate \(p\)-value to&amp;nbsp;&lt;/div&gt;&lt;div&gt;reject \(\Gamma_0\) hypothesis&amp;nbsp;&lt;/div&gt;&lt;div&gt;at median \( \tilde{t}_{\Gamma_0 | \Gamma^{\star}}^{\prime} \) &lt;/div&gt;" style="rounded=1;whiteSpace=wrap;html=1;" vertex="1" parent="npHvEOHwPtpxPotPW_9_-9">
          <mxGeometry x="567.5" y="1000" width="130" height="80" as="geometry" />
        </mxCell>
        <mxCell id="npHvEOHwPtpxPotPW_9_-86" value="discovery sensitivity at 3\(\sigma\)" style="rounded=1;whiteSpace=wrap;html=1;" vertex="1" parent="npHvEOHwPtpxPotPW_9_-9">
          <mxGeometry x="567.5" y="1120" width="130" height="60" as="geometry" />
        </mxCell>
      </root>
    </mxGraphModel>
  </diagram>
</mxfile>
